<svg width="20" height="21" viewBox="0 0 20 21" fill="none" xmlns="http://www.w3.org/2000/svg">
<path d="M18.4399 20.499C18.4265 18.3472 17.5918 16.2817 16.1062 14.7249C14.6206 13.1681 12.5965 12.2375 10.4476 12.1234C8.29873 12.0093 6.18748 12.7204 4.54541 14.1111C2.90334 15.5019 1.85444 17.4673 1.61328 19.6057C1.57328 19.899 1.61331 20.199 1.55998 20.499H0C0.16 15.8857 2.5 12.8057 6.66667 11.0124L6.52661 10.899C5.82314 10.3818 5.24888 9.7089 4.84871 8.93286C4.44855 8.15682 4.23337 7.29873 4.21997 6.4257C4.17197 5.25344 4.50148 4.0967 5.15999 3.12569C5.91296 1.95191 7.07456 1.09911 8.42 0.73234C8.80667 0.625674 9.20668 0.572357 9.60002 0.499023H10.38C10.696 0.53781 11.0098 0.593445 11.32 0.66569C12.3459 0.910884 13.2852 1.43214 14.0361 2.17301C14.7869 2.91389 15.3207 3.84612 15.5796 4.86869C15.8385 5.89126 15.8127 6.9652 15.5049 7.97412C15.1971 8.98304 14.619 9.88849 13.8333 10.5924C13.6667 10.7524 13.48 10.8857 13.2866 11.0457L13.4267 11.1057C15.0713 11.7085 16.5287 12.7328 17.6531 14.0759C18.7774 15.4191 19.5293 17.034 19.8333 18.759C19.9 19.139 19.94 19.5257 19.9933 19.9124V20.499H18.4399ZM9.99333 10.499C10.8277 10.5003 11.6437 10.2543 12.3382 9.79199C13.0328 9.32968 13.5747 8.67182 13.8955 7.90161C14.2163 7.1314 14.3016 6.28339 14.1406 5.46472C13.9796 4.64605 13.5795 3.8935 12.991 3.30212C12.4024 2.71075 11.6517 2.30713 10.8338 2.14225C10.0159 1.97738 9.16755 2.05865 8.39583 2.37581C7.62411 2.69297 6.96372 3.23175 6.49813 3.92411C6.03253 4.61647 5.78258 5.43132 5.77995 6.26567C5.77993 7.38496 6.22319 8.4587 7.01278 9.25203C7.80236 10.0454 8.87405 10.4937 9.99333 10.499Z" fill="#221E1F"/>
</svg>
