<svg width="60" height="60" viewBox="0 0 60 60" fill="none" xmlns="http://www.w3.org/2000/svg">
<g clip-path="url(#clip0_104_622)">
<ellipse cx="30" cy="30" rx="30" ry="30" fill="#221E1F"/>
<path fill-rule="evenodd" clip-rule="evenodd" d="M29.9997 13.3334C20.6098 13.3334 13.333 20.2115 13.333 29.5008C13.333 34.3601 15.3249 38.5582 18.5679 41.4595C18.8398 41.7045 19.0042 42.0432 19.0173 42.4082L19.1079 45.3726C19.1379 46.3182 20.1142 46.9319 20.9792 46.5532L24.2854 45.0944C24.5672 44.9701 24.8791 44.9469 25.1741 45.0276C26.6935 45.4469 28.3128 45.6682 29.9997 45.6682C39.3896 45.6682 46.6663 38.7901 46.6663 29.5008C46.6663 20.2115 39.3896 13.3334 29.9997 13.3334Z" fill="white"/>
<path fill-rule="evenodd" clip-rule="evenodd" d="M18.9914 34.4828H22.8255C23.3708 34.4828 23.8169 34.0535 23.8169 33.5288V33.4493C23.8169 32.9246 23.3708 32.4954 22.8255 32.4954H20.0655V26.4538C20.0655 25.9292 19.6194 25.5 19.0741 25.5H18.9914C18.446 25.5 18 25.9292 18 26.4538V33.5288C18 34.0537 18.446 34.483 18.9914 34.483V34.4828ZM42.75 30.0482V29.9686C42.75 29.4439 42.3037 29.0148 41.7584 29.0148H38.9986V27.5044H41.7584C42.3037 27.5044 42.75 27.0752 42.75 26.5505V26.471C42.75 25.9463 42.3037 25.5171 41.7584 25.5171H37.9243C37.3789 25.5171 36.9329 25.9463 36.9329 26.471V33.546C36.9329 34.0706 37.3789 34.5 37.9243 34.5H41.7584C42.3037 34.5 42.75 34.0706 42.75 33.546V33.4664C42.75 32.9417 42.3037 32.5126 41.7584 32.5126H38.9986V31.0022H41.7584C42.3037 31.0024 42.75 30.5732 42.75 30.0486V30.0482ZM35.3765 34.1985V34.1981C35.5601 34.0202 35.6634 33.7797 35.6634 33.529V26.454C35.6634 25.9293 35.2173 25.5002 34.6718 25.5002H34.5891C34.0437 25.5002 33.5977 25.9293 33.5977 26.454V30.6071L30.0139 25.9826C29.8427 25.695 29.5204 25.5002 29.1531 25.5002H29.0704C28.5251 25.5002 28.0788 25.9293 28.0788 26.454V33.529C28.0788 34.0537 28.5249 34.483 29.0704 34.483H29.1531C29.6985 34.483 30.1445 34.0537 30.1445 33.529V29.2981L33.754 34.0413C33.7761 34.0746 33.8004 34.1065 33.8267 34.1368C33.9258 34.2673 34.0616 34.3564 34.2127 34.411C34.3289 34.4573 34.4558 34.4828 34.5889 34.4828H34.6716C34.8332 34.4828 34.9922 34.4448 35.1348 34.3714C35.2339 34.3259 35.3176 34.2675 35.3763 34.1983L35.3765 34.1985ZM25.6088 34.4828H25.6915C26.2368 34.4828 26.6829 34.0535 26.6829 33.5288V26.4538C26.6829 25.9292 26.2368 25.5 25.6915 25.5H25.6088C25.0634 25.5 24.6172 25.9292 24.6172 26.4538V33.5288C24.6172 34.0535 25.0634 34.4828 25.6088 34.4828Z" fill="#221E1F"/>
</g>
<defs>
<clipPath id="clip0_104_622">
<rect width="60" height="59.9999" fill="white"/>
</clipPath>
</defs>
</svg>
