<svg width="100" height="40" viewBox="0 0 100 40" fill="none" xmlns="http://www.w3.org/2000/svg">
<path fill-rule="evenodd" clip-rule="evenodd" d="M8.81386 0L8.32422 2.99533H10.8424L11.472 0H8.81386Z" fill="#221E1F"/>
<path fill-rule="evenodd" clip-rule="evenodd" d="M0.909364 3.68652H3.49745L3.14781 5.14903H18.9565L18.0471 8.77055H15.8786L15.9485 7.02941H0L0.909364 3.68652Z" fill="#221E1F"/>
<path fill-rule="evenodd" clip-rule="evenodd" d="M2.37793 13.0127L1.81836 15.0323H5.52574L2.86758 23.4592H7.83397L2.37793 39.9648H4.68631L9.89752 23.5289H12.6606V21.9271L10.772 18.9323H9.1632L8.32361 21.5789H5.56078L8.74348 13.0127H2.37793Z" fill="#221E1F"/>
<path fill-rule="evenodd" clip-rule="evenodd" d="M30.3596 1.80469H32.668L32.1084 5.00908H29.6602L30.3596 1.80469Z" fill="#221E1F"/>
<path fill-rule="evenodd" clip-rule="evenodd" d="M22.0344 5.56934H24.5525L23.9929 6.8926H40.4311L39.312 10.723H36.7938L37.3534 8.77298H21.125L22.0344 5.56934Z" fill="#221E1F"/>
<path fill-rule="evenodd" clip-rule="evenodd" d="M28.1902 14.6963L24.413 27.9982H20.4257L16.6484 39.9769H28.7497L32.1773 28.1376H26.7212L30.8483 14.6963H28.1902ZM25.8119 30.0209H29.5193L27.0011 37.8907H19.3066L21.475 30.0209H23.8533L22.6642 35.0353H26.3716L26.8613 33.3639H24.7627L25.8119 30.0209Z" fill="#221E1F"/>
<path fill-rule="evenodd" clip-rule="evenodd" d="M42.9344 12.9863H55.8678L55.2749 15.0977H42.1816L42.9344 12.9863Z" fill="#221E1F"/>
<path fill-rule="evenodd" clip-rule="evenodd" d="M48.0681 17.3916L55.4212 23.8944L54.839 27.0767L48.395 21.4419L45.4533 31.6203H42.9351L45.5151 21.5652L37.1426 26.8107L37.7239 23.8944L48.0681 17.3916Z" fill="#221E1F"/>
<path fill-rule="evenodd" clip-rule="evenodd" d="M61.8792 12.9941H72.2381L71.6964 15.1056H61.418L61.8792 12.9941Z" fill="#221E1F"/>
<path fill-rule="evenodd" clip-rule="evenodd" d="M59.2384 29.8887H66.1784L65.5062 31.6379L58.791 31.6269L59.2384 29.8887Z" fill="#221E1F"/>
<path fill-rule="evenodd" clip-rule="evenodd" d="M72.0961 16.6494H81.5707L77.9719 31.8484H75.7254L79.336 19.1979H75.7254L72.0961 31.8341H69.5488L73.565 19.1866H71.5884L72.0961 16.6494Z" fill="#221E1F"/>
<path fill-rule="evenodd" clip-rule="evenodd" d="M74.5102 13.2129H76.9235L76.3106 16.6511H73.4609L74.5102 13.2129Z" fill="#221E1F"/>
<path fill-rule="evenodd" clip-rule="evenodd" d="M68.1927 21.2979H65.7837L66.245 18.9966H68.6678L68.1927 21.2979ZM67.2133 25.6795H64.8042L65.2653 23.3784H67.6883L67.2133 25.6795ZM62.0171 21.2979L62.4782 18.9966H64.901L64.426 21.2979H62.0171ZM63.4465 25.6795H61.0376L61.4987 23.3784H63.9215L63.4465 25.6795ZM60.9611 17.1143L58.2422 27.9379H68.6112L71.2595 17.1143H60.9611Z" fill="#221E1F"/>
<mask id="mask0_2_52131" style="mask-type:luminance" maskUnits="userSpaceOnUse" x="80" y="12" width="20" height="20">
<path fill-rule="evenodd" clip-rule="evenodd" d="M80.0859 12.4834H100V31.5104H80.0859V12.4834Z" fill="white"/>
</mask>
<g mask="url(#mask0_2_52131)">
<path fill-rule="evenodd" clip-rule="evenodd" d="M94.4379 18.0622H92.0288L92.4901 15.761H94.9129L94.4379 18.0622ZM99.141 15.8454L100 13.9726H94.6529L94.9135 12.4805H92.6052L92.2793 13.9726H85.2037L84.3451 15.8454H90.1423L89.1716 18.135H83.7154L80.0859 31.5075H82.1417L85.4987 20.0157H98.2416L98.8247 18.135H96.9092L97.3557 15.8454H99.141Z" fill="#221E1F"/>
</g>
<path fill-rule="evenodd" clip-rule="evenodd" d="M89.5851 22.3125H87.0404L85.6765 25.2204H90.6467L89.7685 27.3194H87.9278L87.4217 28.6327H89.5851L89.2438 29.7818H85.3616L84.9414 31.8943H94.2859L94.6447 30.3694H91.218L91.6962 28.6511H93.5646L93.8964 27.3194H91.6962L92.1817 25.4844H95.789L96.352 23.9615H88.3127L89.5851 22.3125Z" fill="#221E1F"/>
<path fill-rule="evenodd" clip-rule="evenodd" d="M64.3617 18.9844H66.5595L63.7741 30.5093H62.332L64.3617 18.9844Z" fill="#221E1F"/>
<mask id="mask1_2_52131" style="mask-type:luminance" maskUnits="userSpaceOnUse" x="35" y="35" width="6" height="5">
<path fill-rule="evenodd" clip-rule="evenodd" d="M35.4375 35.2539H40.5556V39.9786H35.4375V35.2539Z" fill="white"/>
</mask>
<g mask="url(#mask1_2_52131)">
<path fill-rule="evenodd" clip-rule="evenodd" d="M40.0322 38.7864C40.0322 39.4223 40.0676 39.5017 40.5556 39.5017V39.8462C40.0588 39.8462 39.5355 39.8462 38.9234 39.9786L38.7904 39.9168L38.7549 39.3341H38.7194C38.4267 39.6872 38.0275 39.9786 37.318 39.9786C36.4221 39.9786 35.8988 39.5282 35.8988 38.3978V36.7288C35.8988 36.1194 35.8633 36.0399 35.4375 36.0399V35.6867C35.872 35.6337 36.5195 35.4747 37.0429 35.2539L37.2116 35.3334V38.2388C37.2116 38.5746 37.2116 39.3604 37.859 39.3604C38.1783 39.3604 38.471 39.1575 38.7283 38.813V36.7111C38.7283 36.1017 38.6839 36.0399 38.2849 36.0399V35.6867C38.7283 35.6337 39.3579 35.4747 39.8726 35.2539L40.0322 35.3334V38.7864Z" fill="#221E1F"/>
</g>
<path fill-rule="evenodd" clip-rule="evenodd" d="M42.8429 36.0057C43.2244 35.5465 43.7034 35.2549 44.2977 35.2549C45.3444 35.2549 45.6903 35.8378 45.6903 36.7209V38.7874C45.6903 39.3616 45.7434 39.4939 46.1426 39.4939V39.865H43.9784V39.4939C44.3509 39.4939 44.3862 39.4321 44.3862 38.761V36.7474C44.3862 36.2617 44.3064 35.8114 43.8008 35.8114C43.5082 35.8114 43.1623 36.1027 42.8429 36.562V38.7698C42.8429 39.4321 42.8697 39.4939 43.2332 39.4939V39.865H40.998V39.4939C41.4858 39.4939 41.5391 39.4144 41.5391 38.761V36.7564C41.5391 36.1204 41.477 36.0322 40.998 36.0409V35.6878C41.477 35.6346 42.0978 35.4935 42.6212 35.2549L42.7899 35.3344L42.8252 36.0057H42.8429Z" fill="#221E1F"/>
<path fill-rule="evenodd" clip-rule="evenodd" d="M48.4507 35.3344V38.7698C48.4507 39.4144 48.5039 39.4939 48.974 39.4939V39.8648H46.5703V39.4939C47.0937 39.4939 47.138 39.4144 47.138 38.7609V36.7386C47.138 36.0852 47.1025 36.0409 46.5703 36.0409V35.6876C47.1113 35.6523 47.688 35.511 48.2999 35.2549L48.4507 35.3344Z" fill="#221E1F"/>
<path fill-rule="evenodd" clip-rule="evenodd" d="M51.936 39.9975H51.3507L49.8161 36.3767C49.5677 35.8028 49.4879 35.7585 49.2129 35.7585V35.3877H51.4836V35.7585C51.2176 35.7585 51.1112 35.8028 51.1112 35.9351C51.1112 36.0146 51.1466 36.1206 51.1999 36.2709L51.9982 38.5051H52.0158L52.832 36.1472C52.8673 36.0411 52.894 35.9617 52.894 35.8998C52.894 35.7938 52.8053 35.7585 52.5569 35.7585V35.3877H53.8963V35.7585C53.6479 35.7585 53.5592 35.8116 53.3907 36.2354L51.936 39.9975Z" fill="#221E1F"/>
<mask id="mask2_2_52131" style="mask-type:luminance" maskUnits="userSpaceOnUse" x="54" y="35" width="5" height="5">
<path fill-rule="evenodd" clip-rule="evenodd" d="M54.2617 35.2539H58.4661V39.9786H54.2617V35.2539Z" fill="white"/>
</mask>
<g mask="url(#mask2_2_52131)">
<path fill-rule="evenodd" clip-rule="evenodd" d="M57.1356 37.222C57.1356 36.6564 57.0648 35.6757 56.426 35.6757C55.8228 35.6757 55.6542 36.5327 55.6455 37.222H57.1356ZM58.4394 38.8659C57.996 39.6695 57.3396 39.9786 56.5592 39.9786C55.1131 39.9786 54.2617 39.1838 54.2617 37.5236C54.2617 36.3843 54.8826 35.2539 56.4348 35.2539C58.3773 35.2539 58.4661 37.1439 58.4661 37.6119H55.6455C55.6455 38.1948 55.7342 38.6627 55.9469 39.0161C56.1598 39.3341 56.4793 39.5019 56.8074 39.5019C57.4993 39.5019 57.8984 39.0161 58.0492 38.6805L58.4394 38.8659Z" fill="#221E1F"/>
</g>
<path fill-rule="evenodd" clip-rule="evenodd" d="M60.8145 35.9879H60.8323C61.2048 35.4933 61.5151 35.2549 61.9764 35.2549C62.3491 35.2549 62.8102 35.5552 62.8102 36.0762C62.8102 36.3852 62.6506 36.606 62.3667 36.606C62.1451 36.606 61.9764 36.4913 61.8788 36.2175C61.7903 35.9349 61.7193 35.8466 61.5774 35.8466C61.3645 35.8466 61.1427 36.0939 60.8411 36.5531V38.7697C60.8411 39.3879 60.9032 39.4937 61.453 39.4937V39.8648H58.9961V39.4937C59.484 39.4937 59.5283 39.4319 59.5283 38.7697V36.7031C59.5283 36.1115 59.484 36.0407 58.9961 36.0407V35.6965C59.484 35.6435 60.096 35.5022 60.6371 35.2549L60.7879 35.3344L60.8145 35.9879Z" fill="#221E1F"/>
<mask id="mask3_2_52131" style="mask-type:luminance" maskUnits="userSpaceOnUse" x="63" y="35" width="4" height="5">
<path fill-rule="evenodd" clip-rule="evenodd" d="M63.1309 35.2539H66.7853V39.9786H63.1309V35.2539Z" fill="white"/>
</mask>
<g mask="url(#mask3_2_52131)">
<path fill-rule="evenodd" clip-rule="evenodd" d="M63.5212 38.4509C63.7519 39.2988 64.1243 39.5637 64.6566 39.5637C65.3041 39.5637 65.4281 39.1221 65.4281 38.8925C65.4281 38.7335 65.3839 38.6011 65.2685 38.4774C65.1266 38.3096 64.8872 38.186 64.4703 37.9299C64.1066 37.6826 63.7873 37.506 63.5655 37.2498C63.3792 37.0379 63.255 36.7731 63.255 36.4462C63.255 35.7486 63.9381 35.2539 65.0912 35.2539C65.6678 35.2539 66.0847 35.3511 66.3686 35.4483C66.4039 35.7396 66.4394 36.0312 66.5458 36.5345L66.1555 36.6051C66.0049 35.8986 65.7388 35.6603 65.2243 35.6603C64.8872 35.6603 64.5146 35.8191 64.5146 36.1636C64.5146 36.3579 64.6477 36.5345 64.8695 36.6936C65.1178 36.8526 65.4638 37.0202 65.7033 37.188C66.0847 37.4176 66.7853 37.8416 66.7853 38.5833C66.7853 39.3251 66.1468 39.9786 64.834 39.9786C64.1687 39.9786 63.6986 39.864 63.3262 39.7227C63.2817 39.3164 63.2196 38.9895 63.1309 38.5392L63.5212 38.4509Z" fill="#221E1F"/>
</g>
<mask id="mask4_2_52131" style="mask-type:luminance" maskUnits="userSpaceOnUse" x="67" y="35" width="5" height="5">
<path fill-rule="evenodd" clip-rule="evenodd" d="M67.334 35.2539H71.5384V39.9786H67.334V35.2539Z" fill="white"/>
</mask>
<g mask="url(#mask4_2_52131)">
<path fill-rule="evenodd" clip-rule="evenodd" d="M70.2079 37.222C70.2079 36.6564 70.137 35.6757 69.4982 35.6757C68.895 35.6757 68.7265 36.5327 68.7178 37.222H70.2079ZM71.5116 38.8659C71.0683 39.6695 70.4119 39.9786 69.6314 39.9786C68.1854 39.9786 67.334 39.1838 67.334 37.5236C67.334 36.3843 67.9549 35.2539 69.5071 35.2539C71.4496 35.2539 71.5384 37.1439 71.5384 37.6119H68.7178C68.7178 38.1948 68.8065 38.6627 69.0192 39.0161C69.2321 39.3341 69.5516 39.5019 69.8796 39.5019C70.5715 39.5019 70.9707 39.0161 71.1215 38.6805L71.5116 38.8659Z" fill="#221E1F"/>
</g>
</svg>
