<svg width="60" height="60" viewBox="0 0 60 60" fill="none" xmlns="http://www.w3.org/2000/svg">
<g clip-path="url(#clip0_104_629)">
<rect x="0.75" width="59.2593" height="59.9999" rx="29.6296" fill="white"/>
<rect x="0.75" width="59.2593" height="59.9999" rx="29.6296" fill="#221E1F"/>
<path fill-rule="evenodd" clip-rule="evenodd" d="M13.333 29.5008C13.333 20.2115 20.6098 13.3334 29.9997 13.3334C39.3896 13.3334 46.6663 20.2115 46.6663 29.5008C46.6663 38.7901 39.3896 45.6682 29.9997 45.6682C28.3128 45.6682 26.6935 45.4469 25.1741 45.0276C24.8791 44.9469 24.5672 44.9701 24.2854 45.0944L20.9792 46.5532C20.1142 46.9319 19.1379 46.3182 19.1079 45.3726L19.0173 42.4082C19.0042 42.0432 18.8398 41.7045 18.5679 41.4595C15.3249 38.5582 13.333 34.3601 13.333 29.5008ZM24.8891 26.462L19.9929 34.2289V34.2283C19.5198 34.9726 20.4392 35.8145 21.1398 35.2814L26.4016 31.2876C26.7572 31.0195 27.2466 31.0164 27.6053 31.2845L31.4984 34.2051C32.6653 35.0801 34.3352 34.772 35.1134 33.5376L40.0058 25.7746C40.4789 25.0302 39.5596 24.1883 38.8589 24.7214L33.6009 28.712C33.2453 28.9802 32.7559 28.9833 32.3971 28.7152L28.5041 25.7946C27.3372 24.9196 25.6672 25.2277 24.8891 26.462Z" fill="white"/>
</g>
<defs>
<clipPath id="clip0_104_629">
<rect width="60" height="59.9999" fill="white"/>
</clipPath>
</defs>
</svg>
